<?xml version="1.0" encoding="UTF-8"?>
<svg xmlns="http://www.w3.org/2000/svg" xmlns:xlink="http://www.w3.org/1999/xlink" width="626" height="453" viewBox="0 0 626 453">
<defs>
<g>
<g id="glyph-0-0-4c3da53f">
<path d="M 9.484375 -3.71875 C 9.171875 -1.0625 7.765625 0.25 5.28125 0.25 C 2.28125 0.25 0.671875 -2 0.671875 -4.984375 C 0.671875 -7.96875 2.234375 -10.453125 5.328125 -10.453125 C 7.578125 -10.453125 8.859375 -9.28125 9.265625 -7.046875 C 9.265625 -7.046875 7.9375 -7.046875 7.9375 -7.046875 C 7.609375 -8.59375 6.78125 -9.3125 5.1875 -9.3125 C 3.203125 -9.3125 1.96875 -7.609375 1.96875 -5 C 1.96875 -2.453125 3.265625 -0.890625 5.296875 -0.890625 C 7.015625 -0.890625 7.828125 -1.796875 8.140625 -3.71875 C 8.140625 -3.71875 9.484375 -3.71875 9.484375 -3.71875 Z M 9.484375 -3.71875 "/>
</g>
<g id="glyph-0-1-4c3da53f">
<path d="M 7.46875 0 C 7.46875 0 1.125 0 1.125 0 C 1.125 0 1.125 -10.203125 1.125 -10.203125 C 1.125 -10.203125 2.421875 -10.203125 2.421875 -10.203125 C 2.421875 -10.203125 2.421875 -1.140625 2.421875 -1.140625 C 2.421875 -1.140625 7.46875 -1.140625 7.46875 -1.140625 C 7.46875 -1.140625 7.46875 0 7.46875 0 Z M 7.46875 0 "/>
</g>
<g id="glyph-0-2-4c3da53f">
<path d="M 8.71875 -2.90625 C 8.71875 -1.234375 7.546875 0 5.71875 0 C 5.71875 0 1.109375 0 1.109375 0 C 1.109375 0 1.109375 -10.203125 1.109375 -10.203125 C 1.109375 -10.203125 5.25 -10.203125 5.25 -10.203125 C 7.1875 -10.203125 8.28125 -9.09375 8.28125 -7.609375 C 8.28125 -6.578125 7.78125 -5.828125 6.859375 -5.390625 C 8.15625 -4.890625 8.71875 -4.140625 8.71875 -2.90625 Z M 6.96875 -7.4375 C 6.96875 -8.46875 6.375 -9.0625 4.921875 -9.0625 C 4.921875 -9.0625 2.40625 -9.0625 2.40625 -9.0625 C 2.40625 -9.0625 2.40625 -5.8125 2.40625 -5.8125 C 2.40625 -5.8125 4.921875 -5.8125 4.921875 -5.8125 C 6.375 -5.8125 6.96875 -6.390625 6.96875 -7.4375 Z M 7.421875 -2.890625 C 7.421875 -3.890625 6.8125 -4.65625 5.59375 -4.65625 C 5.59375 -4.65625 2.40625 -4.65625 2.40625 -4.65625 C 2.40625 -4.65625 2.40625 -1.140625 2.40625 -1.140625 C 2.40625 -1.140625 5.59375 -1.140625 5.59375 -1.140625 C 6.8125 -1.140625 7.421875 -1.921875 7.421875 -2.890625 Z M 7.421875 -2.890625 "/>
</g>
<g id="glyph-0-3-4c3da53f">
<path d="M 10.65625 0 C 10.65625 0 9.421875 0 9.421875 0 C 9.421875 0 9.421875 -8.546875 9.421875 -8.546875 C 9.421875 -8.546875 6.546875 0 6.546875 0 C 6.546875 0 5.1875 0 5.1875 0 C 5.1875 0 2.28125 -8.546875 2.28125 -8.546875 C 2.28125 -8.546875 2.28125 0 2.28125 0 C 2.28125 0 1.046875 0 1.046875 0 C 1.046875 0 1.046875 -10.203125 1.046875 -10.203125 C 1.046875 -10.203125 2.859375 -10.203125 2.859375 -10.203125 C 2.859375 -10.203125 5.875 -1.3125 5.875 -1.3125 C 5.875 -1.3125 8.84375 -10.203125 8.84375 -10.203125 C 8.84375 -10.203125 10.65625 -10.203125 10.65625 -10.203125 C 10.65625 -10.203125 10.65625 0 10.65625 0 Z M 10.65625 0 "/>
</g>
<g id="glyph-0-4-4c3da53f">
<path d="M 9.046875 0 C 9.046875 0 7.578125 0 7.578125 0 C 7.578125 0 2.296875 -8.28125 2.296875 -8.28125 C 2.296875 -8.28125 2.296875 0 2.296875 0 C 2.296875 0 1.0625 0 1.0625 0 C 1.0625 0 1.0625 -10.203125 1.0625 -10.203125 C 1.0625 -10.203125 2.484375 -10.203125 2.484375 -10.203125 C 2.484375 -10.203125 7.8125 -1.859375 7.8125 -1.859375 C 7.8125 -1.859375 7.8125 -10.203125 7.8125 -10.203125 C 7.8125 -10.203125 9.046875 -10.203125 9.046875 -10.203125 C 9.046875 -10.203125 9.046875 0 9.046875 0 Z M 9.046875 0 "/>
</g>
<g id="glyph-0-5-4c3da53f">
<path d="M 9.015625 0 C 9.015625 0 7.71875 0 7.71875 0 C 7.71875 0 7.71875 -4.640625 7.71875 -4.640625 C 7.71875 -4.640625 2.46875 -4.640625 2.46875 -4.640625 C 2.46875 -4.640625 2.46875 0 2.46875 0 C 2.46875 0 1.15625 0 1.15625 0 C 1.15625 0 1.15625 -10.203125 1.15625 -10.203125 C 1.15625 -10.203125 2.46875 -10.203125 2.46875 -10.203125 C 2.46875 -10.203125 2.46875 -5.796875 2.46875 -5.796875 C 2.46875 -5.796875 7.71875 -5.796875 7.71875 -5.796875 C 7.71875 -5.796875 7.71875 -10.203125 7.71875 -10.203125 C 7.71875 -10.203125 9.015625 -10.203125 9.015625 -10.203125 C 9.015625 -10.203125 9.015625 0 9.015625 0 Z M 9.015625 0 "/>
</g>
<g id="glyph-0-6-4c3da53f">
<path d="M 9.140625 0 C 9.140625 0 7.6875 0 7.6875 0 C 7.6875 0 6.640625 -3.0625 6.640625 -3.0625 C 6.640625 -3.0625 2.703125 -3.0625 2.703125 -3.0625 C 2.703125 -3.0625 1.625 0 1.625 0 C 1.625 0 0.234375 0 0.234375 0 C 0.234375 0 3.875 -10.203125 3.875 -10.203125 C 3.875 -10.203125 5.5625 -10.203125 5.5625 -10.203125 C 5.5625 -10.203125 9.140625 0 9.140625 0 Z M 6.265625 -4.15625 C 6.265625 -4.15625 4.703125 -8.8125 4.703125 -8.8125 C 4.703125 -8.8125 3.03125 -4.15625 3.03125 -4.15625 C 3.03125 -4.15625 6.265625 -4.15625 6.265625 -4.15625 Z M 6.265625 -4.15625 "/>
</g>
<g id="glyph-0-7-4c3da53f">
<path d="M 9.34375 -5.109375 C 9.34375 -1.9375 7.75 0 5.1875 0 C 5.1875 0 1.25 0 1.25 0 C 1.25 0 1.25 -10.203125 1.25 -10.203125 C 1.25 -10.203125 5.1875 -10.203125 5.1875 -10.203125 C 7.765625 -10.203125 9.34375 -8.28125 9.34375 -5.109375 Z M 8.03125 -5.09375 C 8.03125 -7.703125 6.96875 -9.0625 4.953125 -9.0625 C 4.953125 -9.0625 2.546875 -9.0625 2.546875 -9.0625 C 2.546875 -9.0625 2.546875 -1.140625 2.546875 -1.140625 C 2.546875 -1.140625 4.953125 -1.140625 4.953125 -1.140625 C 6.96875 -1.140625 8.03125 -2.515625 8.03125 -5.09375 Z M 8.03125 -5.09375 "/>
</g>
<g id="glyph-0-8-4c3da53f">
<path d="M 9.921875 0 C 9.921875 0 9.09375 0 9.09375 0 C 9.09375 0 8.78125 -1.34375 8.78125 -1.34375 C 7.78125 -0.234375 6.671875 0.25 5.296875 0.25 C 2.53125 0.25 0.609375 -1.859375 0.609375 -5 C 0.609375 -8.046875 2.390625 -10.453125 5.515625 -10.453125 C 7.859375 -10.453125 9.421875 -9.1875 9.78125 -7.109375 C 9.78125 -7.109375 8.453125 -7.109375 8.453125 -7.109375 C 8.171875 -8.421875 7.0625 -9.3125 5.5 -9.3125 C 3.34375 -9.3125 1.921875 -7.578125 1.921875 -5.0625 C 1.921875 -2.578125 3.265625 -0.890625 5.578125 -0.890625 C 7.4375 -0.890625 8.78125 -2.140625 8.78125 -3.96875 C 8.78125 -3.96875 8.78125 -4.234375 8.78125 -4.234375 C 8.78125 -4.234375 5.671875 -4.234375 5.671875 -4.234375 C 5.671875 -4.234375 5.671875 -5.390625 5.671875 -5.390625 C 5.671875 -5.390625 9.921875 -5.390625 9.921875 -5.390625 C 9.921875 -5.390625 9.921875 0 9.921875 0 Z M 9.921875 0 "/>
</g>
<g id="glyph-0-9-4c3da53f">
<path d="M 8.578125 0 C 8.578125 0 1.265625 0 1.265625 0 C 1.265625 0 1.265625 -10.203125 1.265625 -10.203125 C 1.265625 -10.203125 8.328125 -10.203125 8.328125 -10.203125 C 8.328125 -10.203125 8.328125 -9.0625 8.328125 -9.0625 C 8.328125 -9.0625 2.5625 -9.0625 2.5625 -9.0625 C 2.5625 -9.0625 2.5625 -5.796875 2.5625 -5.796875 C 2.5625 -5.796875 8.125 -5.796875 8.125 -5.796875 C 8.125 -5.796875 8.125 -4.640625 8.125 -4.640625 C 8.125 -4.640625 2.5625 -4.640625 2.5625 -4.640625 C 2.5625 -4.640625 2.5625 -1.140625 2.5625 -1.140625 C 2.5625 -1.140625 8.578125 -1.140625 8.578125 -1.140625 C 8.578125 -1.140625 8.578125 0 8.578125 0 Z M 8.578125 0 "/>
</g>
<g id="glyph-0-10-4c3da53f">
<path d="M 2.703125 0 C 2.703125 0 1.40625 0 1.40625 0 C 1.40625 0 1.40625 -10.203125 1.40625 -10.203125 C 1.40625 -10.203125 2.703125 -10.203125 2.703125 -10.203125 C 2.703125 -10.203125 2.703125 0 2.703125 0 Z M 2.703125 0 "/>
</g>
<g id="glyph-0-11-4c3da53f">
<path d="M 5.96875 -2.625 C 5.96875 -0.859375 4.859375 0.25 3.078125 0.25 C 1.296875 0.25 0.265625 -0.796875 0.265625 -2.453125 C 0.265625 -2.453125 0.265625 -3.28125 0.265625 -3.28125 C 0.265625 -3.28125 1.5625 -3.28125 1.5625 -3.28125 C 1.5625 -3.28125 1.5625 -2.6875 1.5625 -2.6875 C 1.5625 -1.5 2.109375 -0.84375 3.09375 -0.84375 C 4.09375 -0.84375 4.65625 -1.40625 4.65625 -3.09375 C 4.65625 -3.09375 4.65625 -10.203125 4.65625 -10.203125 C 4.65625 -10.203125 5.96875 -10.203125 5.96875 -10.203125 C 5.96875 -10.203125 5.96875 -2.625 5.96875 -2.625 Z M 5.96875 -2.625 "/>
</g>
<g id="glyph-0-12-4c3da53f">
<path d="M 9.21875 0 C 9.21875 0 7.671875 0 7.671875 0 C 7.671875 0 4.078125 -5.234375 4.078125 -5.234375 C 4.078125 -5.234375 2.40625 -3.5625 2.40625 -3.5625 C 2.40625 -3.5625 2.40625 0 2.40625 0 C 2.40625 0 1.109375 0 1.109375 0 C 1.109375 0 1.109375 -10.203125 1.109375 -10.203125 C 1.109375 -10.203125 2.40625 -10.203125 2.40625 -10.203125 C 2.40625 -10.203125 2.40625 -5.046875 2.40625 -5.046875 C 2.40625 -5.046875 7.484375 -10.203125 7.484375 -10.203125 C 7.484375 -10.203125 9.171875 -10.203125 9.171875 -10.203125 C 9.171875 -10.203125 5.015625 -6.046875 5.015625 -6.046875 C 5.015625 -6.046875 9.21875 0 9.21875 0 Z M 9.21875 0 "/>
</g>
<g id="glyph-0-13-4c3da53f">
<path d="M 8.109375 -9.0625 C 8.109375 -9.0625 2.5625 -9.0625 2.5625 -9.0625 C 2.5625 -9.0625 2.5625 -5.796875 2.5625 -5.796875 C 2.5625 -5.796875 7.4375 -5.796875 7.4375 -5.796875 C 7.4375 -5.796875 7.4375 -4.640625 7.4375 -4.640625 C 7.4375 -4.640625 2.5625 -4.640625 2.5625 -4.640625 C 2.5625 -4.640625 2.5625 0 2.5625 0 C 2.5625 0 1.265625 0 1.265625 0 C 1.265625 0 1.265625 -10.203125 1.265625 -10.203125 C 1.265625 -10.203125 8.109375 -10.203125 8.109375 -10.203125 C 8.109375 -10.203125 8.109375 -9.0625 8.109375 -9.0625 Z M 8.109375 -9.0625 "/>
</g>
</g>
</defs>
<rect x="-62.6" y="-45.3" width="751.2" height="543.6" fill="rgb(100%, 100%, 100%)" fill-opacity="1"/>
<path fill-rule="nonzero" fill="rgb(100%, 100%, 100%)" fill-opacity="1" d="M 16 437 L 610 437 L 610 16 L 16 16 Z M 16 437 "/>
<path fill-rule="nonzero" fill="rgb(0%, 50.196081%, 0%)" fill-opacity="0.5" d="M 147.535156 328.285156 C 188.855469 328.285156 230.175781 366.542969 271.496094 366.542969 L 271.496094 334.605469 C 230.175781 334.605469 188.855469 296.347656 147.535156 296.347656 Z M 147.535156 328.285156 "/>
<path fill-rule="nonzero" fill="rgb(0%, 50.196081%, 0%)" fill-opacity="0.5" d="M 147.535156 362.109375 C 196.667969 362.109375 245.800781 417.863281 294.933594 417.863281 L 294.933594 384.039062 C 245.800781 384.039062 196.667969 328.285156 147.535156 328.285156 Z M 147.535156 362.109375 "/>
<path fill-rule="nonzero" fill="rgb(0%, 50.196081%, 0%)" fill-opacity="0.5" d="M 147.535156 296.347656 C 177.40625 296.347656 207.273438 266.429688 237.144531 266.429688 L 237.144531 243.015625 C 207.273438 243.015625 177.40625 272.933594 147.535156 272.933594 Z M 147.535156 296.347656 "/>
<path fill-rule="nonzero" fill="rgb(0%, 50.196081%, 0%)" fill-opacity="0.5" d="M 413.058594 350.601562 C 422.371094 350.601562 431.683594 327.609375 440.996094 327.609375 L 440.996094 316.070312 C 431.683594 316.070312 422.371094 339.0625 413.058594 339.0625 Z M 413.058594 350.601562 "/>
<path fill-rule="nonzero" fill="rgb(0%, 50.196081%, 0%)" fill-opacity="0.5" d="M 401.726562 255.804688 C 409.789062 255.804688 417.851562 255.773438 425.914062 255.773438 L 425.914062 250.273438 C 417.851562 250.273438 409.789062 250.304688 401.726562 250.304688 Z M 401.726562 255.804688 "/>
<path fill-rule="nonzero" fill="rgb(0%, 50.196081%, 0%)" fill-opacity="0.5" d="M 440.996094 327.609375 C 486.566406 327.609375 532.136719 303.335938 577.707031 303.335938 L 577.707031 280.367188 C 532.136719 280.367188 486.566406 304.640625 440.996094 304.640625 Z M 440.996094 327.609375 "/>
<path fill-rule="nonzero" fill="rgb(0%, 50.196081%, 0%)" fill-opacity="0.5" d="M 427.71875 293.199219 C 417.820312 293.199219 407.917969 275.546875 398.015625 275.546875 L 398.015625 268.523438 C 407.917969 268.523438 417.820312 286.175781 427.71875 286.175781 Z M 427.71875 293.199219 "/>
<path fill-rule="nonzero" fill="rgb(0%, 50.196081%, 0%)" fill-opacity="0.5" d="M 48.292969 176.554688 C 111.246094 176.554688 174.195312 243.015625 237.144531 243.015625 L 237.144531 204.550781 C 174.195312 204.550781 111.246094 138.089844 48.292969 138.089844 Z M 48.292969 176.554688 "/>
<path fill-rule="nonzero" fill="rgb(0%, 50.196081%, 0%)" fill-opacity="0.5" d="M 440.996094 302.226562 C 436.570312 302.226562 432.144531 293.199219 427.71875 293.199219 L 427.71875 286.0625 C 432.144531 286.0625 436.570312 295.089844 440.996094 295.089844 Z M 440.996094 302.226562 "/>
<path fill-rule="nonzero" fill="rgb(0%, 50.196081%, 0%)" fill-opacity="0.5" d="M 271.496094 360.316406 C 318.683594 360.316406 365.871094 369.816406 413.058594 369.816406 L 413.058594 339.0625 C 365.871094 339.0625 318.683594 329.566406 271.496094 329.566406 Z M 271.496094 360.316406 "/>
<path fill-rule="nonzero" fill="rgb(0%, 50.196081%, 0%)" fill-opacity="0.5" d="M 271.496094 334.605469 C 260.046875 334.605469 248.59375 266.429688 237.144531 266.429688 L 237.144531 229.367188 C 248.59375 229.367188 260.046875 297.542969 271.496094 297.542969 Z M 271.496094 334.605469 "/>
<path fill-rule="nonzero" fill="rgb(0%, 50.196081%, 0%)" fill-opacity="0.5" d="M 413.058594 369.816406 C 437.890625 369.816406 462.726562 393.277344 487.5625 393.277344 L 487.5625 374.0625 C 462.726562 374.0625 437.890625 350.601562 413.058594 350.601562 Z M 413.058594 369.816406 "/>
<path fill-rule="nonzero" fill="rgb(0%, 50.196081%, 0%)" fill-opacity="0.5" d="M 379.101562 254.488281 C 394.703125 254.488281 410.308594 272.097656 425.914062 272.097656 L 425.914062 255.773438 C 410.308594 255.773438 394.703125 238.164062 379.101562 238.164062 Z M 379.101562 254.488281 "/>
<path fill-rule="nonzero" fill="rgb(0%, 50.196081%, 0%)" fill-opacity="0.5" d="M 237.144531 229.367188 C 284.464844 229.367188 331.78125 258.8125 379.101562 258.8125 L 379.101562 233.222656 C 331.78125 233.222656 284.464844 203.777344 237.144531 203.777344 Z M 237.144531 229.367188 "/>
<path fill-rule="nonzero" fill="rgb(100%, 64.705884%, 0%)" fill-opacity="0.5" d="M 271.496094 329.566406 C 327.996094 329.566406 384.496094 316.070312 440.996094 316.070312 L 440.996094 302.226562 C 384.496094 302.226562 327.996094 315.71875 271.496094 315.71875 Z M 271.496094 329.566406 "/>
<path fill-rule="nonzero" fill="rgb(0%, 50.196081%, 0%)" fill-opacity="0.5" d="M 48.292969 252.75 C 81.375 252.75 114.453125 362.109375 147.535156 362.109375 L 147.535156 285.914062 C 114.453125 285.914062 81.375 176.554688 48.292969 176.554688 Z M 48.292969 252.75 "/>
<path fill-rule="nonzero" fill="rgb(0%, 50.196081%, 0%)" fill-opacity="0.5" d="M 379.101562 238.164062 C 386.640625 238.164062 394.183594 255.804688 401.726562 255.804688 L 401.726562 251.785156 C 394.183594 251.785156 386.640625 234.144531 379.101562 234.144531 Z M 379.101562 238.164062 "/>
<path fill-rule="nonzero" fill="rgb(0%, 50.196081%, 0%)" fill-opacity="0.5" d="M 425.914062 272.097656 C 476.511719 272.097656 527.109375 280.367188 577.707031 280.367188 L 577.707031 260.550781 C 527.109375 260.550781 476.511719 252.285156 425.914062 252.285156 Z M 425.914062 272.097656 "/>
<path fill-rule="nonzero" fill="rgb(0%, 50.196081%, 0%)" fill-opacity="0.5" d="M 294.933594 384.039062 C 287.121094 384.039062 279.308594 366.542969 271.496094 366.542969 L 271.496094 360.316406 C 279.308594 360.316406 287.121094 377.8125 294.933594 377.8125 Z M 294.933594 384.039062 "/>
<path fill-rule="nonzero" fill="rgb(0%, 50.196081%, 0%)" fill-opacity="0.5" d="M 379.101562 258.8125 C 385.40625 258.8125 391.710938 275.546875 398.015625 275.546875 L 398.015625 271.226562 C 391.710938 271.226562 385.40625 254.488281 379.101562 254.488281 Z M 379.101562 258.8125 "/>
<path fill="none" stroke-width="1" stroke-linecap="butt" stroke-linejoin="miter" stroke="rgb(0%, 0%, 0%)" stroke-opacity="1" stroke-miterlimit="2" d="M 294.933594 417.863281 L 294.933594 377.8125 "/>
<path fill-rule="nonzero" fill="rgb(0%, 0%, 100%)" fill-opacity="1" d="M 294.933594 417.863281 L 300.230469 397.839844 L 294.933594 377.8125 Z M 294.933594 417.863281 "/>
<g fill="rgb(0%, 0%, 0%)" fill-opacity="1">
<use xlink:href="#glyph-0-0-4c3da53f" x="294.934747" y="394.78643"/>
</g>
<path fill="none" stroke-width="1" stroke-linecap="butt" stroke-linejoin="miter" stroke="rgb(0%, 0%, 0%)" stroke-opacity="1" stroke-miterlimit="2" d="M 401.726562 255.804688 L 401.726562 250.304688 "/>
<path fill-rule="nonzero" fill="rgb(0%, 0%, 100%)" fill-opacity="1" d="M 396.433594 251.785156 L 401.726562 251.046875 L 396.433594 250.304688 Z M 396.433594 251.785156 "/>
<g fill="rgb(0%, 0%, 0%)" fill-opacity="1">
<use xlink:href="#glyph-0-1-4c3da53f" x="401.725973" y="250.003107"/>
</g>
<path fill="none" stroke-width="1" stroke-linecap="butt" stroke-linejoin="miter" stroke="rgb(0%, 0%, 0%)" stroke-opacity="1" stroke-miterlimit="2" d="M 147.535156 362.109375 L 147.535156 272.933594 "/>
<path fill-rule="nonzero" fill="rgb(0%, 0%, 100%)" fill-opacity="1" d="M 142.242188 285.914062 L 147.535156 279.425781 L 142.242188 272.933594 Z M 142.242188 285.914062 "/>
<g fill="rgb(0%, 0%, 0%)" fill-opacity="1">
<use xlink:href="#glyph-0-2-4c3da53f" x="147.534985" y="314.469983"/>
</g>
<path fill="none" stroke-width="1" stroke-linecap="butt" stroke-linejoin="miter" stroke="rgb(0%, 0%, 0%)" stroke-opacity="1" stroke-miterlimit="2" d="M 425.914062 272.097656 L 425.914062 250.273438 "/>
<path fill-rule="nonzero" fill="rgb(0%, 0%, 100%)" fill-opacity="1" d="M 425.914062 252.285156 L 431.207031 251.277344 L 425.914062 250.273438 Z M 425.914062 252.285156 "/>
<g fill="rgb(0%, 0%, 0%)" fill-opacity="1">
<use xlink:href="#glyph-0-3-4c3da53f" x="425.914236" y="258.134104"/>
</g>
<path fill="none" stroke-width="1" stroke-linecap="butt" stroke-linejoin="miter" stroke="rgb(0%, 0%, 0%)" stroke-opacity="1" stroke-miterlimit="2" d="M 577.707031 303.335938 L 577.707031 260.550781 "/>
<path fill-rule="nonzero" fill="rgb(0%, 0%, 100%)" fill-opacity="1" d="M 577.707031 303.335938 L 583 281.945312 L 577.707031 260.550781 Z M 577.707031 303.335938 "/>
<g fill="rgb(0%, 0%, 0%)" fill-opacity="1">
<use xlink:href="#glyph-0-4-4c3da53f" x="577.705858" y="278.892085"/>
</g>
<path fill="none" stroke-width="1" stroke-linecap="butt" stroke-linejoin="miter" stroke="rgb(0%, 0%, 0%)" stroke-opacity="1" stroke-miterlimit="2" d="M 487.5625 393.277344 L 487.5625 374.0625 "/>
<path fill-rule="nonzero" fill="rgb(0%, 0%, 100%)" fill-opacity="1" d="M 487.5625 393.277344 L 492.855469 383.671875 L 487.5625 374.0625 Z M 487.5625 393.277344 "/>
<g fill="rgb(0%, 0%, 0%)" fill-opacity="1">
<use xlink:href="#glyph-0-5-4c3da53f" x="487.561268" y="380.618781"/>
</g>
<path fill="none" stroke-width="1" stroke-linecap="butt" stroke-linejoin="miter" stroke="rgb(0%, 0%, 0%)" stroke-opacity="1" stroke-miterlimit="2" d="M 48.292969 252.75 L 48.292969 138.089844 "/>
<path fill-rule="nonzero" fill="rgb(0%, 0%, 100%)" fill-opacity="1" d="M 43 252.75 L 48.292969 195.417969 L 43 138.089844 Z M 43 252.75 "/>
<g fill="rgb(0%, 0%, 0%)" fill-opacity="1">
<use xlink:href="#glyph-0-6-4c3da53f" x="48.294109" y="192.367408"/>
</g>
<path fill="none" stroke-width="1" stroke-linecap="butt" stroke-linejoin="miter" stroke="rgb(0%, 0%, 0%)" stroke-opacity="1" stroke-miterlimit="2" d="M 271.496094 366.542969 L 271.496094 297.542969 "/>
<path fill-rule="nonzero" fill="rgb(0%, 0%, 100%)" fill-opacity="1" d="M 271.496094 315.71875 L 276.792969 306.632812 L 271.496094 297.542969 Z M 271.496094 315.71875 "/>
<g fill="rgb(0%, 0%, 0%)" fill-opacity="1">
<use xlink:href="#glyph-0-7-4c3da53f" x="271.497736" y="328.99075"/>
</g>
<path fill="none" stroke-width="1" stroke-linecap="butt" stroke-linejoin="miter" stroke="rgb(0%, 0%, 0%)" stroke-opacity="1" stroke-miterlimit="2" d="M 413.058594 369.816406 L 413.058594 339.0625 "/>
<g fill="rgb(0%, 0%, 0%)" fill-opacity="1">
<use xlink:href="#glyph-0-8-4c3da53f" x="413.057547" y="351.387709"/>
</g>
<path fill="none" stroke-width="1" stroke-linecap="butt" stroke-linejoin="miter" stroke="rgb(0%, 0%, 0%)" stroke-opacity="1" stroke-miterlimit="2" d="M 237.144531 266.429688 L 237.144531 203.777344 "/>
<path fill-rule="nonzero" fill="rgb(0%, 0%, 100%)" fill-opacity="1" d="M 231.851562 204.550781 L 237.144531 204.164062 L 231.851562 203.777344 Z M 231.851562 204.550781 "/>
<g fill="rgb(0%, 0%, 0%)" fill-opacity="1">
<use xlink:href="#glyph-0-9-4c3da53f" x="237.144602" y="232.050728"/>
</g>
<path fill="none" stroke-width="1" stroke-linecap="butt" stroke-linejoin="miter" stroke="rgb(0%, 0%, 0%)" stroke-opacity="1" stroke-miterlimit="2" d="M 440.996094 327.609375 L 440.996094 295.089844 "/>
<path fill-rule="nonzero" fill="rgb(0%, 0%, 100%)" fill-opacity="1" d="M 440.996094 304.640625 L 446.292969 299.863281 L 440.996094 295.089844 Z M 440.996094 304.640625 "/>
<g fill="rgb(0%, 0%, 0%)" fill-opacity="1">
<use xlink:href="#glyph-0-10-4c3da53f" x="440.997365" y="308.297588"/>
</g>
<path fill="none" stroke-width="1" stroke-linecap="butt" stroke-linejoin="miter" stroke="rgb(0%, 0%, 0%)" stroke-opacity="1" stroke-miterlimit="2" d="M 427.71875 293.199219 L 427.71875 286.0625 "/>
<path fill-rule="nonzero" fill="rgb(0%, 0%, 100%)" fill-opacity="1" d="M 422.425781 286.175781 L 427.71875 286.117188 L 422.425781 286.0625 Z M 422.425781 286.175781 "/>
<g fill="rgb(0%, 0%, 0%)" fill-opacity="1">
<use xlink:href="#glyph-0-11-4c3da53f" x="427.720327" y="286.579707"/>
</g>
<path fill="none" stroke-width="1" stroke-linecap="butt" stroke-linejoin="miter" stroke="rgb(0%, 0%, 0%)" stroke-opacity="1" stroke-miterlimit="2" d="M 398.015625 275.546875 L 398.015625 268.523438 "/>
<path fill-rule="nonzero" fill="rgb(0%, 0%, 100%)" fill-opacity="1" d="M 392.722656 271.226562 L 398.015625 269.875 L 392.722656 268.523438 Z M 392.722656 271.226562 "/>
<g fill="rgb(0%, 0%, 0%)" fill-opacity="1">
<use xlink:href="#glyph-0-12-4c3da53f" x="398.016653" y="268.983469"/>
</g>
<path fill="none" stroke-width="1" stroke-linecap="butt" stroke-linejoin="miter" stroke="rgb(0%, 0%, 0%)" stroke-opacity="1" stroke-miterlimit="2" d="M 379.101562 258.8125 L 379.101562 233.222656 "/>
<path fill-rule="nonzero" fill="rgb(0%, 0%, 100%)" fill-opacity="1" d="M 379.101562 234.144531 L 384.394531 233.683594 L 379.101562 233.222656 Z M 379.101562 234.144531 "/>
<g fill="rgb(0%, 0%, 0%)" fill-opacity="1">
<use xlink:href="#glyph-0-13-4c3da53f" x="379.100058" y="242.964135"/>
</g>
<path fill="none" stroke-width="1" stroke-linecap="butt" stroke-linejoin="miter" stroke="rgb(0%, 0%, 0%)" stroke-opacity="1" stroke-miterlimit="1.154701" d="M 15.5 437 L 610.5 437 "/>
<path fill="none" stroke-width="1" stroke-linecap="butt" stroke-linejoin="miter" stroke="rgb(0%, 0%, 0%)" stroke-opacity="1" stroke-miterlimit="1.154701" d="M 16 437.5 L 16 15.5 "/>
<path fill="none" stroke-width="1" stroke-linecap="butt" stroke-linejoin="miter" stroke="rgb(0%, 0%, 0%)" stroke-opacity="1" stroke-miterlimit="1.154701" d="M 15.5 16 L 610.5 16 "/>
<path fill="none" stroke-width="1" stroke-linecap="butt" stroke-linejoin="miter" stroke="rgb(0%, 0%, 0%)" stroke-opacity="1" stroke-miterlimit="1.154701" d="M 610 437.5 L 610 15.5 "/>
</svg>
