<?xml version="1.0" encoding="UTF-8" standalone="no"?>
<!-- Created with Inkscape (http://www.inkscape.org/) -->

<svg
   width="79.75679mm"
   height="67.666199mm"
   viewBox="0 0 79.75679 67.666199"
   version="1.1"
   id="svg1"
   sodipodi:docname="springsanalogy.svg"
   inkscape:version="1.4.2 (ebf0e940, 2025-05-08)"
   xmlns:inkscape="http://www.inkscape.org/namespaces/inkscape"
   xmlns:sodipodi="http://sodipodi.sourceforge.net/DTD/sodipodi-0.dtd"
   xmlns="http://www.w3.org/2000/svg"
   xmlns:svg="http://www.w3.org/2000/svg"
   xmlns:ns5="http://www.iki.fi/pav/software/textext/">
  <sodipodi:namedview
     id="namedview1"
     pagecolor="#ffffff"
     bordercolor="#000000"
     borderopacity="0.25"
     inkscape:showpageshadow="2"
     inkscape:pageopacity="0.0"
     inkscape:pagecheckerboard="0"
     inkscape:deskcolor="#d1d1d1"
     inkscape:document-units="mm"
     showgrid="false"
     inkscape:zoom="0.71220817"
     inkscape:cx="464.75176"
     inkscape:cy="251.33101"
     inkscape:window-width="1712"
     inkscape:window-height="1069"
     inkscape:window-x="0"
     inkscape:window-y="43"
     inkscape:window-maximized="0"
     inkscape:current-layer="svg1">
    <inkscape:grid
       id="grid1"
       units="mm"
       originx="-1.7843261"
       originy="-85.839574"
       spacingx="0.26458333"
       spacingy="0.26458333"
       empcolor="#0099e5"
       empopacity="0.30196078"
       color="#0099e5"
       opacity="0.14901961"
       empspacing="5"
       enabled="true"
       visible="false" />
    <inkscape:page
       x="0"
       y="0"
       width="79.75679"
       height="67.666199"
       id="page2"
       margin="0"
       bleed="0" />
  </sodipodi:namedview>
  <defs
     id="defs1">
    <inkscape:path-effect
       effect="spiro"
       id="path-effect40"
       is_visible="true"
       lpeversion="1" />
    <marker
       style="overflow:visible"
       id="marker43"
       refX="0"
       refY="0"
       orient="auto-start-reverse"
       markerWidth="1"
       markerHeight="1"
       viewBox="0 0 1 1"
       preserveAspectRatio="xMidYMid">
      <path
         style="fill:none;stroke:context-stroke;stroke-width:1;stroke-linecap:butt"
         d="M 3,-3 0,0 3,3"
         transform="rotate(180,0.125,0)"
         id="path43" />
    </marker>
    <marker
       style="overflow:visible"
       id="marker39"
       refX="0"
       refY="0"
       orient="auto-start-reverse"
       markerWidth="1"
       markerHeight="1"
       viewBox="0 0 1 1"
       preserveAspectRatio="xMidYMid">
      <path
         style="fill:none;stroke:context-stroke;stroke-width:1;stroke-linecap:butt"
         d="M 3,-3 0,0 3,3"
         transform="rotate(180,0.125,0)"
         id="path39" />
    </marker>
    <marker
       style="overflow:visible"
       id="ConcaveTriangle"
       refX="0"
       refY="0"
       orient="auto-start-reverse"
       markerWidth="1"
       markerHeight="1"
       viewBox="0 0 1 1"
       preserveAspectRatio="xMidYMid">
      <path
         transform="scale(0.7)"
         d="M -2,-4 9,0 -2,4 c 2,-2.33 2,-5.66 0,-8 z"
         style="fill:context-stroke;fill-rule:evenodd;stroke:none"
         id="path7" />
    </marker>
    <marker
       style="overflow:visible"
       id="ArrowWide"
       refX="0"
       refY="0"
       orient="auto-start-reverse"
       markerWidth="1"
       markerHeight="1"
       viewBox="0 0 1 1"
       preserveAspectRatio="xMidYMid">
      <path
         style="fill:none;stroke:context-stroke;stroke-width:1;stroke-linecap:butt"
         d="M 3,-3 0,0 3,3"
         transform="rotate(180,0.125,0)"
         id="path1" />
    </marker>
    <marker
       style="overflow:visible"
       id="ArrowWideRounded"
       refX="0"
       refY="0"
       orient="auto-start-reverse"
       markerWidth="1"
       markerHeight="1"
       viewBox="0 0 1 1"
       preserveAspectRatio="xMidYMid">
      <path
         style="fill:none;stroke:context-stroke;stroke-width:1;stroke-linecap:round"
         d="M 3,-3 0,0 3,3"
         transform="rotate(180,0.125,0)"
         id="path2" />
    </marker>
  </defs>
  <g
     id="g160"
     inkscape:label="Sankey"
     inkscape:export-filename="sankey.png"
     inkscape:export-xdpi="96"
     inkscape:export-ydpi="96"
     transform="translate(-1.7843261,-85.839576)">
    <path
       style="fill:none;stroke:#ee951f;stroke-width:0.3;stroke-linecap:round;stroke-linejoin:round;stroke-dasharray:none;stroke-dashoffset:0;stroke-opacity:1"
       d="m 14.642625,97.865709 2.55529,0.03012"
       id="path40"
       inkscape:path-effect="#path-effect40"
       inkscape:original-d="m 14.642625,97.865709 c 0.5504,0.07572 1.552845,0.05292 2.55529,0.03012" />
    <g
       id="g1"
       transform="translate(34.908389,-20.62673)">
      <path
         id="rect22"
         style="fill:#ee951f;stroke-linecap:round;stroke-linejoin:round"
         d="m 20.654106,118.52256 h 9.084547 c 0.175869,15.875 14.727952,29.10417 14.727952,46.30208 H 35.382058 C 35.206189,147.62673 20.654107,134.39756 20.654106,118.52256 Z"
         sodipodi:nodetypes="ccccc" />
      <path
         style="fill:#ff0000;stroke:#000000;stroke-width:1;stroke-linecap:round;stroke-linejoin:round;stroke-dasharray:none"
         d="M 19.331188,118.52256 H 31.237442"
         id="path22" />
      <path
         style="fill:#ffffff;stroke:#000000;stroke-width:0.3;stroke-linecap:round;stroke-linejoin:round;marker-start:url(#ArrowWideRounded);marker-end:url(#ArrowWide)"
         d="M 6.219489,118.63831 V 164.9404"
         id="path23" />
      <g
         id="g33"
         transform="matrix(0.500486,0,0,0.500486,8.060711,133.96077)"
         ns5:version="1.12.0"
         ns5:texconverter="pdflatex"
         ns5:pdfconverter="inkscape"
         ns5:text="$\\Delta \\theta$"
         ns5:preamble="/Users/benoitjeanson/Library/Application Support/org.inkscape.Inkscape/config/inkscape/extensions/textext/default_packages.tex"
         ns5:scale="1.4186999401893752"
         ns5:alignment="middle center"
         ns5:jacobian_sqrt="0.500486">
        <defs
           id="defs802" />
        <g
           fill="#000000"
           fill-opacity="1"
           id="g4984"
           transform="translate(-149.181,-127.624)">
          <g
             transform="translate(148.712,134.765)"
             id="g4239">
            <path
               d="m 4.40625,-6.953125 c -0.0625,-0.140625 -0.09375,-0.1875 -0.265625,-0.1875 -0.15625,0 -0.1875,0.046875 -0.25,0.1875 l -3.375,6.75 C 0.46875,-0.109375 0.46875,-0.09375 0.46875,-0.078125 0.46875,0 0.53125,0 0.6875,0 h 6.921875 c 0.15625,0 0.21875,0 0.21875,-0.078125 0,-0.015625 0,-0.03125 -0.046875,-0.125 z m -0.578125,0.8125 2.6875,5.390625 h -5.375 z m 0,0"
               id="path2644" />
          </g>
        </g>
        <g
           fill="#000000"
           fill-opacity="1"
           id="g1644"
           transform="translate(-149.181,-127.624)">
          <g
             transform="translate(157.015,134.765)"
             id="g1995">
            <path
               d="m 4.53125,-4.984375 c 0,-0.65625 -0.171875,-2.046875 -1.1875,-2.046875 -1.390625,0 -2.921875,2.8125 -2.921875,5.09375 0,0.9375 0.28125,2.046875 1.1875,2.046875 1.40625,0 2.921875,-2.859375 2.921875,-5.09375 z M 1.46875,-3.625 C 1.640625,-4.25 1.84375,-5.046875 2.25,-5.765625 2.515625,-6.25 2.875,-6.8125 3.328125,-6.8125 c 0.484375,0 0.546875,0.640625 0.546875,1.203125 0,0.5 -0.078125,1 -0.3125,1.984375 z m 2,0.328125 C 3.359375,-2.84375 3.15625,-2 2.765625,-1.28125 c -0.34375,0.6875 -0.71875,1.171875 -1.15625,1.171875 -0.328125,0 -0.53125,-0.296875 -0.53125,-1.21875 0,-0.421875 0.0625,-1 0.3125,-1.96875 z m 0,0"
               id="path5063" />
          </g>
        </g>
      </g>
      <g
         id="g39"
         transform="translate(-7.594295)">
        <path
           style="fill:#ff0000;stroke:#000000;stroke-width:1;stroke-linecap:round;stroke-linejoin:round;stroke-dasharray:none"
           d="M 41.820771,164.82464 H 53.727017"
           id="path24" />
        <path
           style="fill:none;stroke:#000000;stroke-width:0.3;stroke-linecap:round;stroke-linejoin:round;stroke-dasharray:none;marker-end:url(#ConcaveTriangle)"
           d="m 47.716385,164.82464 0.06096,7.41794"
           id="path35" />
      </g>
      <g
         id="g113">
        <g
           id="g34"
           transform="translate(-61.7636,35.178806)">
          <circle
             style="fill:none;stroke:#000000;stroke-width:0.3;stroke-linecap:round;stroke-linejoin:round;stroke-dasharray:none"
             id="path33"
             cx="86.651039"
             cy="76.067711"
             r="4.6302085" />
          <path
             style="fill:none;stroke:#000000;stroke-width:0.3;stroke-linecap:round;stroke-linejoin:round;stroke-dasharray:none"
             d="m 84.666664,76.090396 c 0,0 0.60841,-1.539724 1.41878,-1.380633 0.81037,0.159091 0.35838,2.750819 1.18959,2.727185 0.83121,-0.02363 1.36038,-1.346552 1.36038,-1.346552"
             id="path34" />
        </g>
        <path
           style="fill:none;stroke:#000000;stroke-width:0.3;stroke-linecap:round;stroke-linejoin:round;stroke-dasharray:none"
           d="m 24.887439,115.87673 v 2.64583"
           id="path36" />
      </g>
      <g
         id="g8474"
         transform="matrix(0.500486,0,0,0.500486,37.977359,137.81354)"
         ns5:version="1.12.0"
         ns5:texconverter="pdflatex"
         ns5:pdfconverter="inkscape"
         ns5:text="$b\\Delta \\theta$"
         ns5:preamble="/Users/benoitjeanson/Library/Application Support/org.inkscape.Inkscape/config/inkscape/extensions/textext/default_packages.tex"
         ns5:scale="1.4186999401893752"
         ns5:alignment="middle center"
         ns5:jacobian_sqrt="0.500486">
        <defs
           id="defs6354" />
        <g
           fill="#000000"
           fill-opacity="1"
           id="g1652"
           transform="translate(-149.181,-127.624)">
          <g
             transform="translate(148.712,134.765)"
             id="g8107">
            <path
               d="m 2.375,-6.8125 c 0,0 0,-0.109375 -0.125,-0.109375 -0.21875,0 -0.953125,0.078125 -1.21875,0.109375 -0.078125,0 -0.1875,0.015625 -0.1875,0.1875 0,0.125 0.09375,0.125 0.25,0.125 0.46875,0 0.484375,0.0625 0.484375,0.171875 0,0.0625 -0.078125,0.40625 -0.125,0.609375 l -0.828125,3.25 c -0.109375,0.5 -0.15625,0.671875 -0.15625,1.015625 0,0.9375 0.53125,1.5625 1.265625,1.5625 1.171875,0 2.40625,-1.484375 2.40625,-2.921875 0,-0.90625 -0.53125,-1.59375 -1.328125,-1.59375 -0.453125,0 -0.875,0.296875 -1.171875,0.59375 z M 1.453125,-3.046875 C 1.5,-3.265625 1.5,-3.28125 1.59375,-3.390625 2.078125,-4.03125 2.53125,-4.1875 2.796875,-4.1875 c 0.359375,0 0.625,0.296875 0.625,0.9375 0,0.59375 -0.328125,1.734375 -0.515625,2.109375 -0.328125,0.671875 -0.78125,1.03125 -1.171875,1.03125 -0.34375,0 -0.671875,-0.265625 -0.671875,-1 0,-0.203125 0,-0.390625 0.15625,-1.015625 z m 0,0"
               id="path3544" />
          </g>
        </g>
        <g
           fill="#000000"
           fill-opacity="1"
           id="g449"
           transform="translate(-149.181,-127.624)">
          <g
             transform="translate(152.988,134.765)"
             id="g2238">
            <path
               d="m 4.40625,-6.953125 c -0.0625,-0.140625 -0.09375,-0.1875 -0.265625,-0.1875 -0.15625,0 -0.1875,0.046875 -0.25,0.1875 l -3.375,6.75 C 0.46875,-0.109375 0.46875,-0.09375 0.46875,-0.078125 0.46875,0 0.53125,0 0.6875,0 h 6.921875 c 0.15625,0 0.21875,0 0.21875,-0.078125 0,-0.015625 0,-0.03125 -0.046875,-0.125 z m -0.578125,0.8125 2.6875,5.390625 h -5.375 z m 0,0"
               id="path3393" />
          </g>
        </g>
        <g
           fill="#000000"
           fill-opacity="1"
           id="g3569"
           transform="translate(-149.181,-127.624)">
          <g
             transform="translate(161.29,134.765)"
             id="g7712">
            <path
               d="m 4.53125,-4.984375 c 0,-0.65625 -0.171875,-2.046875 -1.1875,-2.046875 -1.390625,0 -2.921875,2.8125 -2.921875,5.09375 0,0.9375 0.28125,2.046875 1.1875,2.046875 1.40625,0 2.921875,-2.859375 2.921875,-5.09375 z M 1.46875,-3.625 C 1.640625,-4.25 1.84375,-5.046875 2.25,-5.765625 2.515625,-6.25 2.875,-6.8125 3.328125,-6.8125 c 0.484375,0 0.546875,0.640625 0.546875,1.203125 0,0.5 -0.078125,1 -0.3125,1.984375 z m 2,0.328125 C 3.359375,-2.84375 3.15625,-2 2.765625,-1.28125 c -0.34375,0.6875 -0.71875,1.171875 -1.15625,1.171875 -0.328125,0 -0.53125,-0.296875 -0.53125,-1.21875 0,-0.421875 0.0625,-1 0.3125,-1.96875 z m 0,0"
               id="path4405" />
          </g>
        </g>
      </g>
      <path
         style="fill:none;stroke:#000000;stroke-width:0.3;stroke-linecap:round;stroke-linejoin:round;stroke-dasharray:none;marker-start:url(#marker39);marker-end:url(#marker43)"
         d="m 28.22126,141.00049 8.678191,0.0233"
         id="path37" />
    </g>
    <g
       id="g38"
       transform="translate(-15.288409,-0.34206538)">
      <path
         style="fill:#ff0000;stroke:#000000;stroke-width:1;stroke-linecap:round;stroke-linejoin:round;stroke-dasharray:none"
         d="M 17.572735,98.306298 H 29.478989"
         id="path4" />
      <path
         style="fill:#ff0000;stroke:#000000;stroke-width:1;stroke-linecap:round;stroke-linejoin:round;stroke-dasharray:none"
         d="M 32.668294,98.243306 H 44.57454"
         id="path8" />
      <g
         id="g14"
         transform="translate(-63.522053,14.962544)">
        <circle
           style="fill:none;stroke:#000000;stroke-width:0.3;stroke-linecap:round;stroke-linejoin:round;stroke-dasharray:none"
           id="circle13"
           cx="86.651039"
           cy="76.067711"
           r="4.6302085" />
        <path
           style="fill:none;stroke:#000000;stroke-width:0.3;stroke-linecap:round;stroke-linejoin:round;stroke-dasharray:none"
           d="m 84.666664,76.090396 c 0,0 0.60841,-1.539724 1.41878,-1.380633 0.81037,0.159091 0.35838,2.750819 1.18959,2.727185 0.83121,-0.02363 1.36038,-1.346552 1.36038,-1.346552"
           id="path14" />
      </g>
      <path
         style="fill:none;stroke:#000000;stroke-width:0.3;stroke-linecap:round;stroke-linejoin:round;stroke-dasharray:none;marker-end:url(#ConcaveTriangle)"
         d="m 38.560454,98.387896 0.06096,7.417944"
         id="path25" />
      <path
         style="fill:none;stroke:#000000;stroke-width:0.3;stroke-linecap:round;stroke-linejoin:round;stroke-dasharray:none"
         d="m 23.128986,95.660468 v 2.64583"
         id="path26" />
    </g>
  </g>
</svg>
